<svg width="44" height="46" viewBox="0 0 44 46" fill="none" xmlns="http://www.w3.org/2000/svg">
<g clip-path="url(#clip0)">
<path d="M8.51349 21.8136C8.51349 23.1501 8.75989 24.5821 9.25269 26.1097C9.76896 27.6133 10.5668 29.0095 11.6463 30.2984C12.7258 31.5872 14.0986 32.6612 15.7647 33.5205C17.4308 34.3558 19.4255 34.7735 21.7487 34.7735C23.321 34.7735 24.7407 34.5826 26.0079 34.2007C27.2986 33.795 28.4484 33.258 29.4575 32.5896C30.49 31.9213 31.3818 31.1576 32.1327 30.2984C32.8835 29.4152 33.4938 28.4965 33.9631 27.5417C34.4559 26.5632 34.8195 25.5845 35.0543 24.606C35.3123 23.6276 35.4415 22.6967 35.4415 21.8136C35.4415 20.477 35.1716 19.0569 34.6319 17.5533C34.0922 16.0257 33.2591 14.6176 32.1327 13.3288C31.0063 12.0399 29.5748 10.9778 27.8383 10.1425C26.1252 9.28325 24.0954 8.85364 21.7487 8.85364C19.4255 8.85364 17.4308 9.27132 15.7647 10.1067C14.0986 10.942 12.7258 12.0041 11.6463 13.293C10.5668 14.5579 9.76896 15.9541 9.25269 17.4817C8.75989 19.0092 8.51349 20.4531 8.51349 21.8136ZM11.9631 21.8136C11.9631 20.1429 12.2095 18.6154 12.7023 17.231C13.2186 15.8229 13.9108 14.6176 14.7791 13.6152C15.6708 12.6127 16.7151 11.837 17.9119 11.2881C19.1087 10.7153 20.4111 10.4289 21.8191 10.4289C23.2036 10.4289 24.506 10.7153 25.7263 11.2881C26.97 11.837 28.0495 12.6127 28.9647 13.6152C29.9034 14.6176 30.6426 15.8229 31.1823 17.231C31.722 18.6154 31.9919 20.1429 31.9919 21.8136C31.9919 23.4843 31.722 25.0238 31.1823 26.4319C30.6426 27.8163 29.9034 29.0096 28.9647 30.012C28.0495 31.0144 26.97 31.802 25.7263 32.3748C24.506 32.9237 23.2036 33.1983 21.8191 33.1983C20.4111 33.1983 19.1087 32.9237 17.9119 32.3748C16.7151 31.802 15.6708 31.0144 14.7791 30.012C13.9108 29.0096 13.2186 27.8163 12.7023 26.4319C12.2095 25.0238 11.9631 23.4843 11.9631 21.8136Z" fill="url(#paint0_linear)"/>
<path d="M17.379 23.3121L21.4654 33.3031H22.6442L26.6128 23.3121H25.6894L22.5067 31.3249H22.3888L19.1079 23.3121H17.379Z" fill="url(#paint1_linear)"/>
<path d="M26.1166 36.8417H17.6833C17.6833 37.0498 17.6833 36.9903 17.6833 37.1539C17.6833 37.362 17.6833 37.5381 17.6833 37.7783C17.6833 38.0185 17.6833 38.0905 17.6833 38.2987C17.6833 38.5068 17.6833 38.4028 17.6833 38.6532H25.2147V41.0125C25.2136 41.8155 24.9237 42.5908 24.3981 43.1959C23.8728 43.801 23.1473 44.195 22.3553 44.3053C21.5635 44.4157 20.7584 44.2348 20.0889 43.7962C19.4193 43.3574 18.9301 42.6905 18.7116 41.9183H22.6035C22.6035 41.7331 22.6035 41.8372 22.6035 41.629C22.6035 41.3168 22.6035 41.2529 22.6035 41.0125C22.6035 40.7723 22.6035 40.5883 22.6035 40.3801C22.6035 40.2068 22.6035 40.172 22.6035 40.1068H17.6833C17.4441 40.1068 17.2147 40.2022 17.0456 40.372C16.8764 40.5421 16.7814 40.7723 16.7814 41.0125C16.8209 42.3488 17.3773 43.617 18.3325 44.548C19.2876 45.4793 20.5664 46 21.8977 46C23.2289 46 24.5078 45.4793 25.4629 44.548C26.418 43.617 26.9745 42.3488 27.014 41.0125V37.7473C27.014 37.5079 26.9196 37.2784 26.7514 37.1085C26.5832 36.9389 26.355 36.8429 26.1166 36.8417Z" fill="url(#paint2_linear)"/>
<path d="M40.709 24.4284L37.0634 23.8916L37.153 23.2611L40.7989 23.7981L40.709 24.4284ZM41.8483 24.6871C41.7415 24.6713 41.6547 24.6182 41.5882 24.5277C41.5217 24.4371 41.4961 24.3374 41.5117 24.2286C41.5272 24.1199 41.5794 24.0317 41.6684 23.964C41.7575 23.8964 41.8555 23.8704 41.9625 23.8862C42.0694 23.9018 42.1561 23.9551 42.2226 24.0456C42.2892 24.1362 42.3147 24.2359 42.2992 24.3445C42.2836 24.4534 42.2314 24.5416 42.1424 24.6093C42.0534 24.6769 41.9554 24.7027 41.8483 24.6871Z" fill="url(#paint3_linear)"/>
<path d="M3.27175 24.51L6.91745 23.973L6.82773 23.3428L3.18201 23.8796L3.27175 24.51ZM2.13238 24.7685C2.23931 24.7529 2.32604 24.6996 2.39255 24.6091C2.45906 24.5186 2.48458 24.4189 2.46911 24.3102C2.45362 24.2014 2.40137 24.1131 2.31233 24.0455C2.22328 23.9778 2.1253 23.952 2.01836 23.9676C1.91142 23.9834 1.82469 24.0365 1.75818 24.127C1.69166 24.2176 1.66615 24.3173 1.68163 24.4261C1.69712 24.5348 1.74938 24.623 1.83841 24.6907C1.92745 24.7583 2.02543 24.7844 2.13238 24.7685Z" fill="url(#paint4_linear)"/>
<path d="M3.58802 17.0879L7.14216 18.0728L7.3068 17.4583L3.75264 16.4734L3.58802 17.0879ZM2.44167 16.8634C2.54592 16.8923 2.64628 16.8787 2.74277 16.8226C2.83924 16.7665 2.90168 16.6854 2.93009 16.5794C2.95849 16.4734 2.94513 16.3713 2.88996 16.2731C2.8348 16.175 2.75509 16.1115 2.65084 16.0826C2.54657 16.0537 2.44621 16.0673 2.34974 16.1234C2.25325 16.1795 2.19081 16.2606 2.1624 16.3666C2.13399 16.4727 2.14738 16.5748 2.20253 16.6729C2.25769 16.771 2.3374 16.8345 2.44167 16.8634Z" fill="url(#paint5_linear)"/>
<path d="M40.3409 17.0879L36.7867 18.0728L36.6221 17.4583L40.1763 16.4734L40.3409 17.0879ZM41.4871 16.8634C41.3829 16.8923 41.2827 16.8787 41.1861 16.8226C41.0897 16.7665 41.0273 16.6854 40.9988 16.5794C40.9704 16.4734 40.9837 16.3713 41.0389 16.2731C41.094 16.175 41.1738 16.1115 41.278 16.0826C41.3823 16.0537 41.4826 16.0673 41.5792 16.1234C41.6756 16.1795 41.738 16.2606 41.7665 16.3666C41.7949 16.4727 41.7814 16.5748 41.7263 16.6729C41.6711 16.771 41.5915 16.8345 41.4871 16.8634Z" fill="url(#paint6_linear)"/>
<path d="M6.82818 10.2909L9.75443 12.5666L10.1348 12.0607L7.20857 9.7849L6.82818 10.2909ZM5.84978 9.64313C5.93562 9.70988 6.0336 9.7358 6.14377 9.72085C6.25393 9.70591 6.34183 9.65479 6.40748 9.56749C6.47311 9.4802 6.49859 9.38052 6.4839 9.26847C6.4692 9.15643 6.41894 9.06703 6.33309 9.00028C6.24726 8.93353 6.14925 8.90761 6.03911 8.92256C5.92894 8.9375 5.84105 8.98862 5.77539 9.07592C5.70976 9.16321 5.68428 9.26289 5.69898 9.37494C5.71367 9.48698 5.76393 9.57638 5.84978 9.64313Z" fill="url(#paint7_linear)"/>
<path d="M37.1008 10.2909L34.1745 12.5666L33.7941 12.0607L36.7204 9.7849L37.1008 10.2909ZM38.079 9.64313C37.9933 9.70988 37.8953 9.7358 37.7852 9.72085C37.6751 9.70591 37.5871 9.65479 37.5214 9.56749C37.4559 9.4802 37.4303 9.38052 37.445 9.26847C37.4598 9.15643 37.5099 9.06703 37.5959 9.00028C37.6816 8.93353 37.7796 8.90761 37.8898 8.92256C38.0001 8.9375 38.0879 8.98862 38.1535 9.07592C38.2192 9.16321 38.2446 9.26289 38.2299 9.37494C38.2151 9.48698 38.165 9.57638 38.079 9.64313Z" fill="url(#paint8_linear)"/>
<path d="M21.4949 3.12213V6.86873H22.1211V3.12213H21.4949ZM21.4065 1.9382C21.4065 2.0481 21.4458 2.14302 21.5244 2.22294C21.603 2.30287 21.6963 2.34284 21.8044 2.34284C21.9124 2.34284 22.0057 2.30287 22.0843 2.22294C22.1629 2.14302 22.2022 2.0481 22.2022 1.9382C22.2022 1.8283 22.1629 1.73339 22.0843 1.65346C22.0057 1.57353 21.9124 1.53357 21.8044 1.53357C21.6963 1.53357 21.603 1.57353 21.5244 1.65346C21.4458 1.73339 21.4065 1.8283 21.4065 1.9382Z" fill="url(#paint9_linear)"/>
<path d="M30.192 4.83733L28.567 8.19963L29.129 8.48063L30.7542 5.1183L30.192 4.83733ZM30.6262 3.73516C30.5786 3.8338 30.5726 3.9366 30.6084 4.04359C30.6445 4.15057 30.7108 4.22832 30.8078 4.27679C30.9048 4.32529 31.0059 4.33128 31.1111 4.29482C31.2163 4.25835 31.2926 4.19081 31.3403 4.09219C31.388 3.99355 31.3939 3.89075 31.3581 3.78376C31.3223 3.67675 31.2558 3.59903 31.1587 3.55053C31.0617 3.50206 30.9606 3.49604 30.8555 3.53253C30.7503 3.569 30.6739 3.63654 30.6262 3.73516Z" fill="url(#paint10_linear)"/>
<path d="M13.6641 4.83733L15.2892 8.19963L14.7272 8.48063L13.1021 5.1183L13.6641 4.83733ZM13.23 3.73516C13.2776 3.8338 13.2835 3.9366 13.2477 4.04359C13.2118 4.15057 13.1454 4.22832 13.0484 4.27679C12.9514 4.32529 12.8504 4.33128 12.7452 4.29482C12.64 4.25835 12.5635 4.19081 12.5159 4.09219C12.4682 3.99355 12.4623 3.89075 12.4982 3.78376C12.534 3.67675 12.6004 3.59903 12.6974 3.55053C12.7944 3.50206 12.8954 3.49604 13.0006 3.53253C13.1059 3.569 13.1823 3.63654 13.23 3.73516Z" fill="url(#paint11_linear)"/>
</g>
<defs>
<linearGradient id="paint0_linear" x1="21.9775" y1="8.85364" x2="21.9775" y2="34.7735" gradientUnits="userSpaceOnUse">
<stop stop-color="#3DB2F3"/>
<stop offset="1" stop-color="#A2A5FF"/>
</linearGradient>
<linearGradient id="paint1_linear" x1="21.9959" y1="23.3121" x2="21.9959" y2="33.3031" gradientUnits="userSpaceOnUse">
<stop stop-color="#3DB2F3"/>
<stop offset="1" stop-color="#A2A5FF"/>
</linearGradient>
<linearGradient id="paint2_linear" x1="21.8977" y1="36.8417" x2="21.8977" y2="46" gradientUnits="userSpaceOnUse">
<stop stop-color="#3DB2F3"/>
<stop offset="1" stop-color="#A2A5FF"/>
</linearGradient>
<linearGradient id="paint3_linear" x1="39.6835" y1="23.2611" x2="39.6835" y2="24.6915" gradientUnits="userSpaceOnUse">
<stop stop-color="#3DB2F3"/>
<stop offset="1" stop-color="#A2A5FF"/>
</linearGradient>
<linearGradient id="paint4_linear" x1="4.29735" y1="23.3428" x2="4.29735" y2="24.773" gradientUnits="userSpaceOnUse">
<stop stop-color="#3DB2F3"/>
<stop offset="1" stop-color="#A2A5FF"/>
</linearGradient>
<linearGradient id="paint5_linear" x1="4.72736" y1="16.0679" x2="4.72736" y2="18.0728" gradientUnits="userSpaceOnUse">
<stop stop-color="#3DB2F3"/>
<stop offset="1" stop-color="#A2A5FF"/>
</linearGradient>
<linearGradient id="paint6_linear" x1="39.2015" y1="16.0679" x2="39.2015" y2="18.0728" gradientUnits="userSpaceOnUse">
<stop stop-color="#3DB2F3"/>
<stop offset="1" stop-color="#A2A5FF"/>
</linearGradient>
<linearGradient id="paint7_linear" x1="7.91489" y1="8.91846" x2="7.91489" y2="12.5666" gradientUnits="userSpaceOnUse">
<stop stop-color="#3DB2F3"/>
<stop offset="1" stop-color="#A2A5FF"/>
</linearGradient>
<linearGradient id="paint8_linear" x1="36.014" y1="8.91846" x2="36.014" y2="12.5666" gradientUnits="userSpaceOnUse">
<stop stop-color="#3DB2F3"/>
<stop offset="1" stop-color="#A2A5FF"/>
</linearGradient>
<linearGradient id="paint9_linear" x1="21.8044" y1="1.53357" x2="21.8044" y2="6.86873" gradientUnits="userSpaceOnUse">
<stop stop-color="#3DB2F3"/>
<stop offset="1" stop-color="#A2A5FF"/>
</linearGradient>
<linearGradient id="paint10_linear" x1="29.9741" y1="3.50903" x2="29.9741" y2="8.48063" gradientUnits="userSpaceOnUse">
<stop stop-color="#3DB2F3"/>
<stop offset="1" stop-color="#A2A5FF"/>
</linearGradient>
<linearGradient id="paint11_linear" x1="13.8822" y1="3.50903" x2="13.8822" y2="8.48063" gradientUnits="userSpaceOnUse">
<stop stop-color="#3DB2F3"/>
<stop offset="1" stop-color="#A2A5FF"/>
</linearGradient>
<clipPath id="clip0">
<rect width="44" height="46" fill="white"/>
</clipPath>
</defs>
</svg>
