<svg width="582" height="144" viewBox="0 0 582 144" fill="none" xmlns="http://www.w3.org/2000/svg">
<path d="M48.3286 127.406V89.7891C48.3286 84.7266 49.9106 80.5664 53.0747 77.3086C56.4028 73.9102 60.7388 72.2109 66.0825 72.2109C71.356 72.2109 75.6919 73.9102 79.0903 77.3086C82.2544 80.4492 83.8364 84.6094 83.8364 89.7891V124.242L77.1567 127.406H76.8052V89.7891C76.8052 86.6484 75.9614 84.1055 74.2739 82.1602C72.188 79.7461 69.4575 78.5391 66.0825 78.5391C62.7075 78.5391 59.9771 79.7461 57.8911 82.1602C56.2036 84.1055 55.3599 86.6484 55.3599 89.7891V124.242L48.6802 127.406H48.3286ZM92.8589 126V74.6719L96.5855 72.9141H109.91C115.253 72.9141 119.589 74.6133 122.918 78.0117C126.082 81.2227 127.664 85.3828 127.664 90.4922V108.422C127.664 113.508 126.082 117.668 122.918 120.902C119.589 124.301 115.253 126 109.91 126H92.8589ZM99.8902 119.672H109.91C113.285 119.672 116.015 118.465 118.101 116.051C119.789 114.105 120.632 111.562 120.632 108.422V90.4922C120.632 87.3516 119.789 84.8086 118.101 82.8633C116.015 80.4492 113.285 79.2422 109.91 79.2422H99.8902V119.672ZM136.686 127.406V74.6719L143.366 71.5078H143.717V124.242L137.038 127.406H136.686ZM152.74 127.406V89.7891C152.74 84.7266 154.322 80.5664 157.486 77.3086C160.814 73.9102 165.15 72.2109 170.494 72.2109C175.744 72.2109 180.08 73.9102 183.502 77.3086C186.666 80.4492 188.248 84.6094 188.248 89.7891V124.242L181.568 127.406H181.216V102.656H159.771V124.242L153.091 127.406H152.74ZM159.771 96.2578H181.216V89.7891C181.216 86.6484 180.373 84.1055 178.685 82.1602C176.599 79.7461 173.869 78.5391 170.494 78.5391C167.119 78.5391 164.388 79.7461 162.302 82.1602C160.615 84.1055 159.771 86.6484 159.771 89.7891V96.2578ZM197.27 127.406V89.7891C197.27 84.7266 198.852 80.5664 202.016 77.3086C205.344 73.9102 209.68 72.2109 215.024 72.2109C220.298 72.2109 224.633 73.9102 228.032 77.3086C231.196 80.4492 232.778 84.6094 232.778 89.7891V124.242L226.098 127.406H225.747V89.7891C225.747 86.6484 224.903 84.1055 223.215 82.1602C221.13 79.7461 218.399 78.5391 215.024 78.5391C211.649 78.5391 208.919 79.7461 206.833 82.1602C205.145 84.1055 204.301 86.6484 204.301 89.7891V124.242L197.622 127.406H197.27Z" fill="#3964A5"/>
<path d="M251.329 126V74.6719L255.055 72.9141H268.379C273.723 72.9141 278.059 74.6133 281.387 78.0117C284.551 81.2227 286.133 85.3828 286.133 90.4922V108.422C286.133 113.508 284.551 117.668 281.387 120.902C278.059 124.301 273.723 126 268.379 126H251.329ZM258.36 119.672H268.379C271.754 119.672 274.485 118.465 276.571 116.051C278.258 114.105 279.102 111.562 279.102 108.422V90.4922C279.102 87.3516 278.258 84.8086 276.571 82.8633C274.485 80.4492 271.754 79.2422 268.379 79.2422H258.36V119.672ZM302.187 109.125C302.187 112.266 303.031 114.809 304.718 116.754C306.804 119.168 309.535 120.375 312.91 120.375C316.285 120.375 319.015 119.168 321.101 116.754C322.789 114.809 323.632 112.266 323.632 109.125V89.7891C323.632 86.6484 322.789 84.1055 321.101 82.1602C319.015 79.7461 316.285 78.5391 312.91 78.5391C309.535 78.5391 306.804 79.7461 304.718 82.1602C303.031 84.1055 302.187 86.6484 302.187 89.7891V109.125ZM295.156 109.125V89.7891C295.156 84.7031 296.738 80.543 299.902 77.3086C303.23 73.9102 307.566 72.2109 312.91 72.2109C318.253 72.2109 322.589 73.9102 325.918 77.3086C329.082 80.5195 330.664 84.6797 330.664 89.7891V109.125C330.664 114.211 329.082 118.371 325.918 121.605C322.589 125.004 318.253 126.703 312.91 126.703C307.566 126.703 303.23 125.004 299.902 121.605C296.738 118.371 295.156 114.211 295.156 109.125ZM375.194 106.664V109.125C375.194 114.211 373.612 118.371 370.448 121.605C367.12 125.004 362.784 126.703 357.44 126.703C352.096 126.703 347.76 125.004 344.432 121.605C341.268 118.371 339.686 114.211 339.686 109.125V89.7891C339.686 84.7031 341.268 80.543 344.432 77.3086C347.76 73.9102 352.096 72.2109 357.44 72.2109C362.971 72.2109 367.307 73.9102 370.448 77.3086C373.612 80.707 375.194 84.6328 375.194 89.0859L368.514 92.25H368.163V89.7891C368.163 86.6484 367.319 84.1055 365.631 82.1602C363.545 79.7461 360.815 78.5391 357.44 78.5391C354.065 78.5391 351.335 79.7461 349.249 82.1602C347.561 84.1055 346.717 86.6484 346.717 89.7891V109.125C346.717 112.266 347.561 114.809 349.249 116.754C351.335 119.168 354.065 120.375 357.44 120.375C360.815 120.375 363.545 119.168 365.631 116.754C367.319 114.809 368.163 112.5 368.163 109.828L374.842 106.664H375.194ZM387.134 127.406V79.3125H372.088V78.9609L374.935 72.9141H409.213V73.2656L406.365 79.3125H394.166V124.242L387.486 127.406H387.134ZM413.137 109.125C413.137 112.266 413.981 114.809 415.669 116.754C417.755 119.168 420.485 120.375 423.86 120.375C427.235 120.375 429.965 119.168 432.051 116.754C433.739 114.809 434.583 112.266 434.583 109.125V89.7891C434.583 86.6484 433.739 84.1055 432.051 82.1602C429.965 79.7461 427.235 78.5391 423.86 78.5391C420.485 78.5391 417.755 79.7461 415.669 82.1602C413.981 84.1055 413.137 86.6484 413.137 89.7891V109.125ZM406.106 109.125V89.7891C406.106 84.7031 407.688 80.543 410.852 77.3086C414.18 73.9102 418.516 72.2109 423.86 72.2109C429.204 72.2109 433.54 73.9102 436.868 77.3086C440.032 80.5195 441.614 84.6797 441.614 89.7891V109.125C441.614 114.211 440.032 118.371 436.868 121.605C433.54 125.004 429.204 126.703 423.86 126.703C418.516 126.703 414.18 125.004 410.852 121.605C407.688 118.371 406.106 114.211 406.106 109.125ZM450.636 127.406V74.6719L454.363 72.9141H467.687C473.031 72.9141 477.367 74.6133 480.695 78.0117C483.859 81.2461 485.441 85.4062 485.441 90.4922C485.441 95.6016 483.859 99.7617 480.695 102.973C478.82 104.871 476.629 106.242 474.121 107.086L486.285 124.488L480.097 127.406H479.746L466.211 108.07H457.668V124.242L450.988 127.406H450.636ZM457.668 101.742H467.687C470.758 101.742 473.488 100.535 475.879 98.1211C477.566 96.4102 478.41 93.8672 478.41 90.4922C478.41 87.3516 477.566 84.8086 475.879 82.8633C473.793 80.4492 471.062 79.2422 467.687 79.2422H457.668V101.742ZM494.077 125.438C493.257 124.594 492.846 123.586 492.846 122.414C492.846 121.219 493.257 120.199 494.077 119.355C494.897 118.512 495.893 118.09 497.065 118.09C498.237 118.09 499.233 118.512 500.053 119.355C500.874 120.199 501.284 121.219 501.284 122.414C501.284 123.586 500.874 124.594 500.053 125.438C499.233 126.281 498.237 126.703 497.065 126.703C495.893 126.703 494.897 126.281 494.077 125.438Z" fill="#13A9B0"/>
<g filter="url(#filter0_i)">
<path d="M12 49C12 40.7157 18.7157 34 27 34C35.2843 34 42 40.7157 42 49V128H12V49Z" fill="#13A9B0"/>
</g>
<g filter="url(#filter1_i)">
<circle cx="27.2974" cy="15" r="15" fill="#13A9B0"/>
</g>
<path fill-rule="evenodd" clip-rule="evenodd" d="M1.79735 36.019C7.80528 52.9776 20.2119 64.0204 22.7735 66.1714V85.0566C22.7735 96.8824 35.2975 106.506 46.8177 106.506C58.3379 106.506 67.7124 96.8887 67.7124 85.0566V76.7262C71.4561 75.9924 74.2974 72.6042 74.2974 68.5516C74.2974 63.9652 70.6584 60.2298 66.1906 60.2298C61.7226 60.2298 58.084 63.9652 58.084 68.5516C58.084 72.6034 60.919 75.9911 64.6648 76.7258V85.0566C64.6648 95.1617 56.6617 103.377 46.8177 103.377C36.9738 103.377 25.8212 95.1555 25.8212 85.0566V65.9257C28.9079 63.2859 40.7025 52.4132 46.5128 36.0127C48.9144 29.2363 48.9085 23.7114 46.5008 19.5879C43.5981 14.6197 42.8004 14.5215 42.5309 14.4883C42.5198 14.487 42.5095 14.4857 42.5 14.4842C41.6648 14.3653 40.9132 15.1427 40.7973 16C40.7166 16.5675 41.0713 16.9351 41.4518 17.3295C41.6459 17.5307 41.8468 17.7389 42 17.9842C42.1851 18.2807 42.2608 18.3986 42.2983 18.4569C42.3174 18.4867 42.3265 18.501 42.3352 18.5155C42.3431 18.5288 42.3506 18.5424 42.365 18.5685C42.4348 18.6944 42.666 19.1118 43.8859 21.2022C45.7998 24.481 45.7206 29.1051 43.6482 34.9491C38.3269 49.9721 27.4102 60.4024 24.1553 63.2745C20.9003 60.4024 9.98351 49.9721 4.66235 34.9491C2.59601 29.1237 2.5107 24.506 4.4063 21.2336C6.63107 17.3987 11.9531 16.628 12.1601 16.598L12.1661 16.5971C12.5972 16.5308 12.5007 16.1021 12.3962 15.6376C12.3476 15.4219 12.2974 15.1984 12.2974 14.9999C12.2974 14.898 12.3128 14.7702 12.3294 14.6324C12.3945 14.0939 12.478 13.402 11.7331 13.5C11.4954 13.5312 4.83285 14.4197 1.80955 19.5943C-0.59803 23.7176 -0.604252 29.2427 1.79735 36.019ZM66.2361 73.7448C66.2203 73.7443 66.2044 73.744 66.1885 73.744C66.1729 73.744 66.1574 73.7443 66.1419 73.7447C63.3726 73.7179 61.1317 71.4007 61.1317 68.5516C61.1317 65.6859 63.3989 63.3583 66.1906 63.3583C68.9822 63.3583 71.2498 65.6921 71.2498 68.5516C71.2498 71.4017 69.0068 73.7196 66.2361 73.7448Z" fill="#BEBEBE"/>
<path d="M48.2974 97H55.3553V108H48.2974V97Z" fill="#3964A5"/>
<path d="M512.031 117.562C512.031 119.133 512.453 120.404 513.297 121.377C514.34 122.584 515.705 123.188 517.393 123.188C519.08 123.188 520.445 122.584 521.488 121.377C522.332 120.404 522.754 119.133 522.754 117.562V107.895C522.754 106.324 522.332 105.053 521.488 104.08C520.445 102.873 519.08 102.27 517.393 102.27C515.705 102.27 514.34 102.873 513.297 104.08C512.453 105.053 512.031 106.324 512.031 107.895V117.562ZM508.516 117.562V107.895C508.516 105.352 509.307 103.271 510.889 101.654C512.553 99.9551 514.721 99.1055 517.393 99.1055C520.064 99.1055 522.232 99.9551 523.896 101.654C525.479 103.26 526.27 105.34 526.27 107.895V117.562C526.27 120.105 525.479 122.186 523.896 123.803C522.232 125.502 520.064 126.352 517.393 126.352C514.721 126.352 512.553 125.502 510.889 123.803C509.307 122.186 508.516 120.105 508.516 117.562ZM533.301 126.703V100.336L535.164 99.457H541.826C544.498 99.457 546.666 100.307 548.33 102.006C549.912 103.623 550.703 105.703 550.703 108.246C550.703 110.801 549.912 112.881 548.33 114.486C547.393 115.436 546.297 116.121 545.043 116.543L551.125 125.244L548.031 126.703H547.855L541.088 117.035H536.816V125.121L533.477 126.703H533.301ZM536.816 113.871H541.826C543.361 113.871 544.727 113.268 545.922 112.061C546.766 111.205 547.188 109.934 547.188 108.246C547.188 106.676 546.766 105.404 545.922 104.432C544.879 103.225 543.514 102.621 541.826 102.621H536.816V113.871ZM575.031 111.129V117.562C575.031 120.105 574.24 122.186 572.658 123.803C570.994 125.502 568.826 126.352 566.154 126.352C563.482 126.352 561.314 125.502 559.65 123.803C558.068 122.186 557.277 120.105 557.277 117.562V107.895C557.277 105.352 558.068 103.271 559.65 101.654C561.314 99.9551 563.482 99.1055 566.154 99.1055C568.92 99.1055 571.088 99.9551 572.658 101.654C574.24 103.354 575.031 105.316 575.031 107.543L571.691 109.125H571.516V107.895C571.516 106.324 571.094 105.053 570.25 104.08C569.207 102.873 567.842 102.27 566.154 102.27C564.467 102.27 563.102 102.873 562.059 104.08C561.215 105.053 560.793 106.324 560.793 107.895V117.562C560.793 119.133 561.215 120.404 562.059 121.377C563.102 122.584 564.467 123.188 566.154 123.188C567.842 123.188 569.207 122.584 570.25 121.377C571.094 120.404 571.516 119.25 571.516 117.914V114.328H565.398V114.152L566.822 111.129H575.031Z" fill="#13A9B0"/>
<defs>
<filter id="filter0_i" x="8" y="30" width="34" height="98" filterUnits="userSpaceOnUse" color-interpolation-filters="sRGB">
<feFlood flood-opacity="0" result="BackgroundImageFix"/>
<feBlend mode="normal" in="SourceGraphic" in2="BackgroundImageFix" result="shape"/>
<feColorMatrix in="SourceAlpha" type="matrix" values="0 0 0 0 0 0 0 0 0 0 0 0 0 0 0 0 0 0 127 0" result="hardAlpha"/>
<feOffset dx="-4" dy="-4"/>
<feGaussianBlur stdDeviation="4"/>
<feComposite in2="hardAlpha" operator="arithmetic" k2="-1" k3="1"/>
<feColorMatrix type="matrix" values="0 0 0 0 0 0 0 0 0 0 0 0 0 0 0 0 0 0 0.25 0"/>
<feBlend mode="normal" in2="shape" result="effect1_innerShadow"/>
</filter>
<filter id="filter1_i" x="8.29736" y="-4" width="34" height="34" filterUnits="userSpaceOnUse" color-interpolation-filters="sRGB">
<feFlood flood-opacity="0" result="BackgroundImageFix"/>
<feBlend mode="normal" in="SourceGraphic" in2="BackgroundImageFix" result="shape"/>
<feColorMatrix in="SourceAlpha" type="matrix" values="0 0 0 0 0 0 0 0 0 0 0 0 0 0 0 0 0 0 127 0" result="hardAlpha"/>
<feOffset dx="-4" dy="-4"/>
<feGaussianBlur stdDeviation="2"/>
<feComposite in2="hardAlpha" operator="arithmetic" k2="-1" k3="1"/>
<feColorMatrix type="matrix" values="0 0 0 0 0 0 0 0 0 0 0 0 0 0 0 0 0 0 0.25 0"/>
<feBlend mode="normal" in2="shape" result="effect1_innerShadow"/>
</filter>
</defs>
</svg>
