<svg width="34" height="34" viewBox="0 0 34 34" fill="none" xmlns="http://www.w3.org/2000/svg">
<path d="M25.5439 23.5408L31.6115 29.6069L29.6069 31.6115L23.5408 25.5439C21.2836 27.3533 18.4762 28.3375 15.5833 28.3333C8.54534 28.3333 2.83334 22.6213 2.83334 15.5833C2.83334 8.54534 8.54534 2.83334 15.5833 2.83334C22.6213 2.83334 28.3333 8.54534 28.3333 15.5833C28.3375 18.4762 27.3533 21.2836 25.5439 23.5408ZM22.7021 22.4896C24.5 20.6407 25.5041 18.1623 25.5 15.5833C25.5 10.1037 21.0616 5.66668 15.5833 5.66668C10.1037 5.66668 5.66667 10.1037 5.66667 15.5833C5.66667 21.0616 10.1037 25.5 15.5833 25.5C18.1623 25.5041 20.6407 24.5 22.4896 22.7021L22.7021 22.4896Z" fill="#696969"/>
</svg>
